<svg xmlns="http://www.w3.org/2000/svg" width="500" height="500" viewBox="0 0 500 500" fill="none">
<rect width="500" height="500" fill="white"/>
<path d="M112.377 43.5666C95.97 45.4948 80.7699 52.9664 66.8967 66.102C52.7823 79.5991 44.8203 96.9525 43.1314 118.162C41.6838 137.203 41.5631 372.679 43.1314 384.851C46.7505 414.134 62.7951 437.031 88.37 449.564C104.173 457.397 108.275 458 144.586 458H176.796L178.726 452.818C179.812 450.046 181.984 443.659 183.552 438.718C185.241 433.778 187.654 426.426 189.101 422.45C193.565 409.435 196.339 410.519 154.117 409.796L117.323 409.194L110.808 405.578C102.364 400.878 94.5224 390.635 92.5922 381.717C91.7478 377.379 91.3859 335.803 91.6271 246.505L91.9891 117.56L95.3669 110.691C99.2272 102.978 105.018 97.314 112.98 93.5782C118.408 91.168 120.339 91.0475 186.93 90.686L255.21 90.3245L257.019 87.5527C258.105 85.9861 265.464 76.2248 273.426 65.7404C281.508 55.3766 288.023 46.0973 288.023 45.2538C288.023 44.4102 286.816 43.4461 285.248 42.9641C280.905 41.8795 122.148 42.482 112.377 43.5666Z" fill="black"/>
<path d="M321.439 44.7717C320.353 46.3384 318.905 50.0742 318.181 53.0869C317.458 56.0997 315.045 64.1738 312.753 71.1634C310.581 78.153 308.53 85.1425 308.289 86.8297L307.927 89.8424L344.721 90.445C379.947 91.0475 381.757 91.168 387.547 93.8192C397.922 98.6396 405.16 107.075 408.055 118.042C409.141 122.501 409.624 150.218 409.624 239.998C409.744 303.868 409.382 362.677 408.779 370.63C407.573 387.502 406.366 390.514 397.319 399.432C386.582 410.158 388.995 409.796 312.632 409.796H246.041L237.234 420.883C213.952 449.685 210.815 453.903 210.815 455.831C210.815 457.879 215.641 458 299.241 458C395.992 458 395.268 458 410.106 450.769C427.84 442.093 440.989 429.319 449.072 412.809C457.999 394.732 457.395 405.217 457.878 255.061C458.24 102.857 458.361 106.473 449.675 88.6373C441.11 70.9224 427.84 58.0278 410.589 50.0742C397.319 43.9282 392.614 43.3256 356.664 42.6025L323.248 42L321.439 44.7717Z" fill="black"/>
<path d="M288.501 90.5643C273.06 110.81 229.872 167.088 213.345 188.177C189.459 218.907 146.633 274.824 145.185 277.114C144.582 278.078 144.823 279.042 145.788 279.765C146.754 280.247 166.176 280.729 188.976 280.729C211.776 280.729 230.716 281.09 230.958 281.331C231.681 281.934 230.958 285.188 224.323 311.579C221.669 322.184 217.205 340.622 214.43 352.553C211.656 364.483 206.468 385.934 202.97 400.154C199.351 414.374 196.697 426.305 197.059 426.546C198.024 427.63 203.211 421.725 221.91 398.346C247.605 366.17 270.164 338.212 316.127 281.693C337.117 255.663 354.248 233.609 354.127 232.645C353.765 231.079 348.095 230.838 312.99 230.476C274.869 230.235 272.215 230.115 272.818 228.066C273.18 226.981 275.352 216.015 277.644 203.723C288.018 148.047 299.238 90.3232 302.133 77.4287C303.339 72.1263 300.323 75.0185 288.501 90.5643Z" fill="black"/>
</svg>
